<svg width="315" height="381" viewBox="0 0 315 381" fill="none" xmlns="http://www.w3.org/2000/svg">
<g filter="url(#filter0_d_122_3)">
<path d="M193.697 62.2953L201.23 7.01404C201.23 7.01404 103.299 5.75766 93.2545 8.27043C83.2102 10.7832 77.1837 14.8037 58.0997 25.8599C39.0157 36.9162 25.456 58.5261 19.1784 69.8337C12.9007 81.1412 1.60099 166.576 1.60099 166.576C0.763974 168.251 -0.658956 179.642 0.345465 211.806C1.34989 243.97 37.5928 261.224 55.5888 265.831H159.797L167.331 209.293H86.9769C58.8531 209.293 54.3332 190.029 55.5888 180.396C58.0998 164.063 64.3774 124.864 69.3996 98.7307C74.4217 72.5977 94.0916 63.5517 103.299 62.2953H193.697Z" fill="white"/>
<path d="M105.963 162.453L114.732 107.315L287.607 111.074C280.091 158.693 262.803 263.455 253.784 301.55C244.764 339.645 199.082 357.523 177.368 361.7H72.1394L82.1612 307.815C103.875 308.233 152.564 308.818 173.61 307.815C194.655 306.813 203.257 284.841 204.928 273.981L221.213 162.453H105.963Z" fill="black"/>
</g>
<defs>
<filter id="filter0_d_122_3" x="0" y="-4.86374e-05" width="314.307" height="380.4" filterUnits="userSpaceOnUse" color-interpolation-filters="sRGB">
<feFlood flood-opacity="0" result="BackgroundImageFix"/>
<feColorMatrix in="SourceAlpha" type="matrix" values="0 0 0 0 0 0 0 0 0 0 0 0 0 0 0 0 0 0 127 0" result="hardAlpha"/>
<feOffset dx="14" dy="6"/>
<feGaussianBlur stdDeviation="6.35"/>
<feComposite in2="hardAlpha" operator="out"/>
<feColorMatrix type="matrix" values="0 0 0 0 0 0 0 0 0 0 0 0 0 0 0 0 0 0 0.25 0"/>
<feBlend mode="normal" in2="BackgroundImageFix" result="effect1_dropShadow_122_3"/>
<feBlend mode="normal" in="SourceGraphic" in2="effect1_dropShadow_122_3" result="shape"/>
</filter>
</defs>
</svg>
